<svg xmlns="http://www.w3.org/2000/svg" width="160.39" height="60.529" viewBox="0 0 160.39 60.529">
  <g id="Layer_1" data-name="Layer 1" transform="translate(0.02)">
    <g id="Group_437" data-name="Group 437" transform="translate(-0.02)">
      <g id="Group_434" data-name="Group 434" transform="translate(0.666 0.131)">
        <path id="Path_1700" data-name="Path 1700" d="M19.734,34.153,1.86,17.26,19.734.37,37.6,17.263,19.734,34.156ZM3.8,17.26,19.734,32.318,35.668,17.26,19.734,2.2Z" transform="translate(-1.86 -0.37)" fill="#00231d"/>
        <path id="Path_1701" data-name="Path 1701" d="M67.461,34.153,49.59,17.26,67.461.37,85.331,17.263,67.461,34.156ZM51.527,17.26,67.461,32.318,83.394,17.26,67.461,2.2Z" transform="translate(-32.686 -0.37)" fill="#00231d"/>
      </g>
      <g id="Group_435" data-name="Group 435" transform="translate(72.333)">
        <path id="Path_1702" data-name="Path 1702" d="M204.22,0h7.2a11.318,11.318,0,0,1,5.957,1.236,7.863,7.863,0,0,1,3.988,7.289c0,4.675-2.794,6.417-4.813,7.423a9.049,9.049,0,0,1,6.92,8.935,8.412,8.412,0,0,1-5.362,8.248,16.7,16.7,0,0,1-5.408.779H204.22Zm1.374,15.537h6.141a10.294,10.294,0,0,0,4.813-.871c2.84-1.6,3.439-3.942,3.439-6.325a6.593,6.593,0,0,0-3.439-6.1c-.963-.549-2.2-.963-5.132-1.009h-5.822Zm0,17.141h7.15a14.465,14.465,0,0,0,4.859-.733,7.2,7.2,0,0,0,4.491-7.058,7.689,7.689,0,0,0-4.583-7.289c-1.835-.779-3.024-.825-5.776-.825h-6.141v15.9Z" transform="translate(-204.22)" fill="#00231d"/>
        <path id="Path_1703" data-name="Path 1703" d="M284.12,0h1.374V33.914H284.12Z" transform="translate(-255.823)" fill="#00231d"/>
        <path id="Path_1704" data-name="Path 1704" d="M319.34,0h18.607V1.236H320.714V16.224h17.233V17.46H320.714V32.674h17.233V33.91H319.34Z" transform="translate(-278.57)" fill="#00231d"/>
      </g>
      <g id="Group_436" data-name="Group 436" transform="translate(0 47.18)">
        <path id="Path_1705" data-name="Path 1705" d="M5.657,134.846a2.877,2.877,0,0,0-1.728-.492,4.168,4.168,0,0,0-.839.085,2.245,2.245,0,0,0-.733.283,1.517,1.517,0,0,0-.514.535,1.654,1.654,0,0,0-.191.832,1.065,1.065,0,0,0,.276.761,2.059,2.059,0,0,0,.74.478,5.891,5.891,0,0,0,1.045.3c.39.081.786.166,1.19.262s.8.205,1.19.333a3.844,3.844,0,0,1,1.045.521,2.47,2.47,0,0,1,.74.825,2.566,2.566,0,0,1,.276,1.254,2.536,2.536,0,0,1-.365,1.388,2.984,2.984,0,0,1-.931.938,4.088,4.088,0,0,1-1.275.528,6.158,6.158,0,0,1-1.4.163,5.97,5.97,0,0,1-1.615-.212,3.99,3.99,0,0,1-1.339-.648,3.069,3.069,0,0,1-.91-1.108,3.569,3.569,0,0,1-.336-1.6H1.262a2.2,2.2,0,0,0,.9,1.863,2.774,2.774,0,0,0,.946.443,4.305,4.305,0,0,0,1.109.142,5.052,5.052,0,0,0,.917-.085,2.787,2.787,0,0,0,.832-.29,1.56,1.56,0,0,0,.825-1.473,1.281,1.281,0,0,0-.276-.854,2.027,2.027,0,0,0-.74-.535,5.32,5.32,0,0,0-1.045-.333l-1.19-.262c-.4-.089-.8-.195-1.19-.312a4.205,4.205,0,0,1-1.045-.471,2.25,2.25,0,0,1-.74-.754,2.225,2.225,0,0,1-.276-1.158,2.623,2.623,0,0,1,1.144-2.256,3.823,3.823,0,0,1,1.179-.542,5.118,5.118,0,0,1,1.36-.177,5.415,5.415,0,0,1,1.452.184,3.331,3.331,0,0,1,1.176.584,2.813,2.813,0,0,1,.8,1,3.562,3.562,0,0,1,.319,1.445H6.436a2.113,2.113,0,0,0-.79-1.587Z" transform="translate(0.02 -133.22)" fill="#00231d"/>
        <path id="Path_1706" data-name="Path 1706" d="M31.606,148.395a3.336,3.336,0,0,1-2.079.627,3.818,3.818,0,0,1-1.53-.283,2.961,2.961,0,0,1-1.087-.8,3.378,3.378,0,0,1-.662-1.225A5.782,5.782,0,0,1,26,145.165a4.443,4.443,0,0,1,.255-1.537,3.649,3.649,0,0,1,.719-1.208,3.254,3.254,0,0,1,1.094-.8,3.379,3.379,0,0,1,1.388-.283,3.028,3.028,0,0,1,1.629.4,3.241,3.241,0,0,1,1.038,1.031,4.108,4.108,0,0,1,.542,1.367,5.765,5.765,0,0,1,.12,1.41H27.279a2.9,2.9,0,0,0,.113.917,2.049,2.049,0,0,0,.414.769,2.074,2.074,0,0,0,.726.535,2.478,2.478,0,0,0,1.038.2,2.123,2.123,0,0,0,1.261-.354,1.738,1.738,0,0,0,.648-1.08h1.2A2.941,2.941,0,0,1,31.61,148.4Zm-.29-4.724a2.062,2.062,0,0,0-1.93-1.264,2.185,2.185,0,0,0-.846.163,1.953,1.953,0,0,0-.648.45,2.154,2.154,0,0,0-.429.662,2.445,2.445,0,0,0-.184.8h4.229a2.426,2.426,0,0,0-.191-.811Z" transform="translate(-16.785 -138.464)" fill="#00231d"/>
        <path id="Path_1707" data-name="Path 1707" d="M54.5,148.828a1.708,1.708,0,0,1-.868.184,1.05,1.05,0,0,1-.747-.262,1.152,1.152,0,0,1-.276-.861,2.873,2.873,0,0,1-1.158.861,4.023,4.023,0,0,1-2.376.149,2.229,2.229,0,0,1-.776-.354,1.7,1.7,0,0,1-.521-.634,2.5,2.5,0,0,1,.021-1.969,1.851,1.851,0,0,1,.563-.648,2.5,2.5,0,0,1,.8-.375c.3-.085.606-.156.917-.213q.5-.1.946-.149a5.3,5.3,0,0,0,.79-.142,1.341,1.341,0,0,0,.542-.269.655.655,0,0,0,.2-.521,1.218,1.218,0,0,0-.149-.641,1.013,1.013,0,0,0-.386-.368,1.593,1.593,0,0,0-.528-.17,4,4,0,0,0-.577-.042,2.6,2.6,0,0,0-1.282.29,1.243,1.243,0,0,0-.556,1.1H47.866a2.617,2.617,0,0,1,.283-1.155,2.179,2.179,0,0,1,.684-.761,2.914,2.914,0,0,1,.974-.421,5.172,5.172,0,0,1,1.172-.128,7.057,7.057,0,0,1,.988.071,2.6,2.6,0,0,1,.889.29,1.725,1.725,0,0,1,.641.616,1.991,1.991,0,0,1,.241,1.038v3.779a2.946,2.946,0,0,0,.05.627c.032.131.145.2.333.2a1.439,1.439,0,0,0,.372-.057v.939Zm-1.966-3.772a1.526,1.526,0,0,1-.6.248q-.372.08-.776.128c-.269.032-.542.071-.818.113a2.974,2.974,0,0,0-.74.205,1.366,1.366,0,0,0-.535.4,1.124,1.124,0,0,0-.205.715.97.97,0,0,0,.12.5,1,1,0,0,0,.312.333,1.32,1.32,0,0,0,.45.184,2.423,2.423,0,0,0,.542.057,2.847,2.847,0,0,0,1.024-.163,2.178,2.178,0,0,0,.7-.411,1.6,1.6,0,0,0,.4-.538,1.366,1.366,0,0,0,.127-.545v-1.232Z" transform="translate(-30.729 -138.458)" fill="#00231d"/>
        <path id="Path_1708" data-name="Path 1708" d="M71.284,141.491v1.551h.028a3.3,3.3,0,0,1,1.08-1.325,2.739,2.739,0,0,1,1.622-.4V142.6a3.472,3.472,0,0,0-1.24.2,1.907,1.907,0,0,0-.825.584,2.415,2.415,0,0,0-.457.931,5,5,0,0,0-.142,1.261v3.272H70.14v-7.356h1.14Z" transform="translate(-45.293 -138.448)" fill="#00231d"/>
        <path id="Path_1709" data-name="Path 1709" d="M86.612,142.782a1.847,1.847,0,0,0-1.225-.386,2.273,2.273,0,0,0-1.094.241,1.985,1.985,0,0,0-.7.641,2.623,2.623,0,0,0-.375.917,4.892,4.892,0,0,0-.113,1.077,4.052,4.052,0,0,0,.12,1,2.7,2.7,0,0,0,.375.861,1.9,1.9,0,0,0,.669.606,2,2,0,0,0,.981.227,1.97,1.97,0,0,0,1.4-.471,2.14,2.14,0,0,0,.62-1.325h1.24a3.4,3.4,0,0,1-1.016,2.107,3.2,3.2,0,0,1-2.228.74,3.83,3.83,0,0,1-1.487-.269,2.852,2.852,0,0,1-1.08-.769,3.331,3.331,0,0,1-.655-1.186,4.915,4.915,0,0,1-.22-1.516,5.424,5.424,0,0,1,.212-1.544,3.576,3.576,0,0,1,.648-1.254,3.044,3.044,0,0,1,1.087-.839,3.532,3.532,0,0,1,1.523-.3,4.447,4.447,0,0,1,1.172.149,2.849,2.849,0,0,1,.967.464,2.524,2.524,0,0,1,.691.79,2.879,2.879,0,0,1,.34,1.13H87.207a1.839,1.839,0,0,0-.6-1.08Z" transform="translate(-52.836 -138.458)" fill="#00231d"/>
        <path id="Path_1710" data-name="Path 1710" d="M105.728,133.884v3.885h.028a1.6,1.6,0,0,1,.4-.577,2.382,2.382,0,0,1,.577-.386,2.906,2.906,0,0,1,.669-.22,3.485,3.485,0,0,1,.676-.071,3.245,3.245,0,0,1,1.211.2,1.943,1.943,0,0,1,.783.556,2.045,2.045,0,0,1,.418.846,4.687,4.687,0,0,1,.12,1.087v4.838H109.4v-4.979a1.376,1.376,0,0,0-1.491-1.48,2.472,2.472,0,0,0-.96.17,1.81,1.81,0,0,0-.676.485,2.117,2.117,0,0,0-.407.733,3.02,3.02,0,0,0-.135.917v4.154H104.52V133.88h1.211Z" transform="translate(-67.497 -133.646)" fill="#00231d"/>
        <path id="Path_1711" data-name="Path 1711" d="M129.2,158.12v1.58h-1.58v-1.58Z" transform="translate(-82.416 -149.302)" fill="#00231d"/>
        <path id="Path_1712" data-name="Path 1712" d="M151.273,133.89v10.161H149.92V133.89Z" transform="translate(-96.818 -133.653)" fill="#00231d"/>
        <path id="Path_1713" data-name="Path 1713" d="M160.74,141.494v1.165h.028a2.546,2.546,0,0,1,2.391-1.339,3.245,3.245,0,0,1,1.211.2,1.943,1.943,0,0,1,.783.556,2.045,2.045,0,0,1,.418.846,4.689,4.689,0,0,1,.12,1.087v4.838H164.48v-4.979a1.376,1.376,0,0,0-1.491-1.48,2.472,2.472,0,0,0-.96.17,1.81,1.81,0,0,0-.676.485,2.117,2.117,0,0,0-.407.733,3.021,3.021,0,0,0-.135.917v4.154H159.6V141.49h1.137Z" transform="translate(-103.07 -138.451)" fill="#00231d"/>
        <path id="Path_1714" data-name="Path 1714" d="M183.668,137.786v1.066H182.2v4.569a1.309,1.309,0,0,0,.035.344.335.335,0,0,0,.135.2.619.619,0,0,0,.276.092,4.046,4.046,0,0,0,.464.021h.556v1.066h-.924a4.373,4.373,0,0,1-.8-.064,1.19,1.19,0,0,1-.542-.234.98.98,0,0,1-.3-.485,2.9,2.9,0,0,1-.1-.825v-4.682H179.74v-1.066h1.254V135.58H182.2v2.206h1.466Z" transform="translate(-116.077 -134.744)" fill="#00231d"/>
        <path id="Path_1715" data-name="Path 1715" d="M199.086,148.395a3.336,3.336,0,0,1-2.079.627,3.818,3.818,0,0,1-1.53-.283,2.96,2.96,0,0,1-1.087-.8,3.376,3.376,0,0,1-.662-1.225,5.782,5.782,0,0,1-.248-1.551,4.443,4.443,0,0,1,.255-1.537,3.649,3.649,0,0,1,.719-1.208,3.254,3.254,0,0,1,1.094-.8,3.379,3.379,0,0,1,1.388-.283,3.028,3.028,0,0,1,1.629.4,3.241,3.241,0,0,1,1.038,1.031,4.108,4.108,0,0,1,.542,1.367,5.764,5.764,0,0,1,.12,1.41h-5.507a2.9,2.9,0,0,0,.113.917,2.049,2.049,0,0,0,.414.769,2.074,2.074,0,0,0,.726.535,2.478,2.478,0,0,0,1.038.2,2.123,2.123,0,0,0,1.261-.354,1.738,1.738,0,0,0,.648-1.08h1.2a2.941,2.941,0,0,1-1.066,1.863Zm-.29-4.724a2.062,2.062,0,0,0-1.93-1.264,2.185,2.185,0,0,0-.846.163,1.953,1.953,0,0,0-.648.45,2.155,2.155,0,0,0-.428.662,2.445,2.445,0,0,0-.184.8h4.229a2.425,2.425,0,0,0-.191-.811Z" transform="translate(-124.951 -138.464)" fill="#00231d"/>
        <path id="Path_1716" data-name="Path 1716" d="M217.194,141.491v1.551h.028a3.3,3.3,0,0,1,1.08-1.325,2.739,2.739,0,0,1,1.622-.4V142.6a3.472,3.472,0,0,0-1.24.2,1.907,1.907,0,0,0-.825.584,2.415,2.415,0,0,0-.457.931,5.005,5.005,0,0,0-.142,1.261v3.272H216.05v-7.356h1.14Z" transform="translate(-139.528 -138.448)" fill="#00231d"/>
        <path id="Path_1717" data-name="Path 1717" d="M229.76,135.37v-1.48h1.211v1.48Zm1.211,1.325v7.356H229.76v-7.356Z" transform="translate(-148.382 -133.653)" fill="#00231d"/>
        <path id="Path_1718" data-name="Path 1718" d="M239.614,141.494v1.08h.028a2.673,2.673,0,0,1,2.376-1.254,2.706,2.706,0,0,1,1.24.283,1.6,1.6,0,0,1,.783.967,2.54,2.54,0,0,1,.974-.924,2.736,2.736,0,0,1,1.332-.326,3.8,3.8,0,0,1,1,.12,2.107,2.107,0,0,1,.768.375,1.719,1.719,0,0,1,.5.662,2.453,2.453,0,0,1,.177.974v5.394h-1.211v-4.824a3.349,3.349,0,0,0-.057-.641,1.368,1.368,0,0,0-.213-.521,1.058,1.058,0,0,0-.436-.351,1.731,1.731,0,0,0-.719-.127,1.9,1.9,0,0,0-1.41.514,1.857,1.857,0,0,0-.514,1.367v4.583h-1.211v-4.824a3.138,3.138,0,0,0-.064-.655,1.436,1.436,0,0,0-.22-.521,1,1,0,0,0-.421-.34,1.618,1.618,0,0,0-.676-.12,1.812,1.812,0,0,0-.9.213,2,2,0,0,0-.613.514,2.061,2.061,0,0,0-.34.62,1.748,1.748,0,0,0-.106.535v4.583H238.47v-7.356h1.137Z" transform="translate(-154.008 -138.451)" fill="#00231d"/>
        <path id="Path_1719" data-name="Path 1719" d="M275.11,158.12v1.58h-1.58v-1.58Z" transform="translate(-176.651 -149.302)" fill="#00231d"/>
        <path id="Path_1720" data-name="Path 1720" d="M297.74,133.89l3.97,10.161h-1.495l-1.108-3.06h-4.3l-1.137,3.06H292.29l3.956-10.161Zm.938,5.964-1.693-4.739h-.028l-1.721,4.739Z" transform="translate(-188.767 -133.653)" fill="#00231d"/>
        <path id="Path_1721" data-name="Path 1721" d="M325.782,144.044v-1h-.028a1.785,1.785,0,0,1-.938.882,3.584,3.584,0,0,1-1.41.269,3.36,3.36,0,0,1-1.487-.312,3.028,3.028,0,0,1-1.052-.839,3.629,3.629,0,0,1-.634-1.225,5.054,5.054,0,0,1-.213-1.48,5.192,5.192,0,0,1,.205-1.48,3.52,3.52,0,0,1,.627-1.218,3.033,3.033,0,0,1,1.052-.825,3.329,3.329,0,0,1,1.473-.3,3.489,3.489,0,0,1,.613.057,3.271,3.271,0,0,1,.655.191,2.919,2.919,0,0,1,.62.354,1.985,1.985,0,0,1,.492.549h.028V133.88H327v10.161h-1.211Zm-4.346-2.61a2.626,2.626,0,0,0,.414.875,2.026,2.026,0,0,0,.712.613,2.151,2.151,0,0,0,1.016.227,2.091,2.091,0,0,0,1.038-.241,2.069,2.069,0,0,0,.7-.634,2.585,2.585,0,0,0,.39-.889,4.318,4.318,0,0,0-.007-2.054,2.583,2.583,0,0,0-.4-.889,2.073,2.073,0,0,0-.719-.62,2.256,2.256,0,0,0-1.066-.234,2.072,2.072,0,0,0-1.038.241,1.948,1.948,0,0,0-.683.641,2.779,2.779,0,0,0-.368.91,4.714,4.714,0,0,0-.113,1.052,3.721,3.721,0,0,0,.135,1Z" transform="translate(-206.676 -133.646)" fill="#00231d"/>
        <path id="Path_1722" data-name="Path 1722" d="M345.694,149.166l-2.734-7.356h1.353l2.065,6.134h.028l2.008-6.134h1.268l-2.692,7.356Z" transform="translate(-221.492 -138.768)" fill="#00231d"/>
        <path id="Path_1723" data-name="Path 1723" d="M365.26,135.37v-1.48h1.211v1.48Zm1.211,1.325v7.356H365.26v-7.356Z" transform="translate(-235.894 -133.653)" fill="#00231d"/>
        <path id="Path_1724" data-name="Path 1724" d="M374.065,147.219a1.282,1.282,0,0,0,.45.443,1.949,1.949,0,0,0,.627.234,3.438,3.438,0,0,0,.719.071,4.442,4.442,0,0,0,.6-.043,2.267,2.267,0,0,0,.577-.156,1.13,1.13,0,0,0,.436-.333.9.9,0,0,0,.17-.563.816.816,0,0,0-.354-.712,3.083,3.083,0,0,0-.889-.39c-.354-.1-.744-.191-1.162-.269a5.9,5.9,0,0,1-1.158-.344,2.393,2.393,0,0,1-.889-.62,1.6,1.6,0,0,1-.354-1.109,1.76,1.76,0,0,1,.248-.953,2.037,2.037,0,0,1,.641-.648,2.884,2.884,0,0,1,.882-.368,4.009,4.009,0,0,1,.974-.12,5.871,5.871,0,0,1,1.155.106,2.624,2.624,0,0,1,.931.372,1.937,1.937,0,0,1,.648.712,2.714,2.714,0,0,1,.283,1.116h-1.211a1.229,1.229,0,0,0-.184-.591,1.193,1.193,0,0,0-.4-.375,1.805,1.805,0,0,0-.535-.205,2.751,2.751,0,0,0-.591-.064,3.615,3.615,0,0,0-.549.043,1.873,1.873,0,0,0-.506.149,1,1,0,0,0-.368.283.708.708,0,0,0-.142.46.69.69,0,0,0,.22.521,1.682,1.682,0,0,0,.563.34,4.948,4.948,0,0,0,.769.227c.283.06.57.128.854.191.3.067.6.149.889.241a2.93,2.93,0,0,1,.769.375,1.844,1.844,0,0,1,.542.591,1.729,1.729,0,0,1,.205.882,2.05,2.05,0,0,1-.276,1.109,2.181,2.181,0,0,1-.726.712,3.023,3.023,0,0,1-1.009.375,6.008,6.008,0,0,1-1.116.106,5.175,5.175,0,0,1-1.165-.127,2.85,2.85,0,0,1-.981-.421,2.141,2.141,0,0,1-.684-.768,2.658,2.658,0,0,1-.283-1.158h1.211a1.378,1.378,0,0,0,.184.676Z" transform="translate(-240.687 -138.464)" fill="#00231d"/>
        <path id="Path_1725" data-name="Path 1725" d="M393.177,143.664a3.428,3.428,0,0,1,.684-1.225,3.229,3.229,0,0,1,1.123-.818,4.093,4.093,0,0,1,3.081,0,3.2,3.2,0,0,1,1.116.818,3.428,3.428,0,0,1,.683,1.225,4.887,4.887,0,0,1,.227,1.516,4.81,4.81,0,0,1-.227,1.509,3.411,3.411,0,0,1-.683,1.215,3.172,3.172,0,0,1-1.116.811,4.231,4.231,0,0,1-3.081,0,3.105,3.105,0,0,1-1.123-.811,3.442,3.442,0,0,1-.684-1.215,4.811,4.811,0,0,1-.227-1.509A4.889,4.889,0,0,1,393.177,143.664Zm1.232,2.7a2.483,2.483,0,0,0,.492.868,2.129,2.129,0,0,0,.733.535,2.237,2.237,0,0,0,1.778,0,2.129,2.129,0,0,0,.733-.535,2.517,2.517,0,0,0,.492-.868,4.074,4.074,0,0,0,0-2.376,2.584,2.584,0,0,0-.492-.875,2.1,2.1,0,0,0-.733-.542,2.237,2.237,0,0,0-1.778,0,2.1,2.1,0,0,0-.733.542,2.584,2.584,0,0,0-.492.875,3.624,3.624,0,0,0-.177,1.19A3.682,3.682,0,0,0,394.409,146.367Z" transform="translate(-253.778 -138.451)" fill="#00231d"/>
        <path id="Path_1726" data-name="Path 1726" d="M418.144,141.491v1.551h.028a3.3,3.3,0,0,1,1.08-1.325,2.739,2.739,0,0,1,1.622-.4V142.6a3.472,3.472,0,0,0-1.24.2,1.908,1.908,0,0,0-.825.584,2.416,2.416,0,0,0-.457.931,5.007,5.007,0,0,0-.142,1.261v3.272H417v-7.356h1.14Z" transform="translate(-269.31 -138.448)" fill="#00231d"/>
        <path id="Path_1727" data-name="Path 1727" d="M431.944,150.157a7.252,7.252,0,0,1-.421.91,2.532,2.532,0,0,1-.457.606,1.552,1.552,0,0,1-.556.344,2.153,2.153,0,0,1-.7.106,3.539,3.539,0,0,1-.429-.028,2.08,2.08,0,0,1-.414-.1v-1.108a2,2,0,0,0,.365.12,1.623,1.623,0,0,0,.347.05,1.05,1.05,0,0,0,.62-.177,1.086,1.086,0,0,0,.375-.506l.5-1.24-2.918-7.313h1.367l2.15,6.021h.028l2.065-6.021h1.282l-3.2,8.34Z" transform="translate(-276.576 -138.774)" fill="#00231d"/>
        <path id="Path_1728" data-name="Path 1728" d="M449.98,158.12v1.58H448.4v-1.58Z" transform="translate(-289.59 -149.302)" fill="#00231d"/>
      </g>
    </g>
  </g>
</svg>
