<svg width="93" height="35" viewBox="0 0 93 35" fill="none" xmlns="http://www.w3.org/2000/svg">
<g clip-path="url(#clip0_1_754)">
<path d="M14.1214 25.9973L0.381958 13.0475L14.1214 0.100449L27.8582 13.0502L14.1214 26V25.9973ZM1.87378 13.0475L14.1214 24.591L26.3691 13.0475L14.1214 1.50402L1.87378 13.0475Z" fill="#00231D"/>
<path d="M27.1122 25.9973L13.3755 13.0475L27.1122 0.100433L40.849 13.0502L27.1122 26V25.9973ZM14.8646 13.0475L27.1122 24.591L39.3599 13.0475L27.1122 1.504L14.8646 13.0475Z" fill="#00231D"/>
<path d="M55.4706 0H61.0023C63.221 0 64.5604 0.350214 65.5812 0.947478C67.9769 2.21259 68.6465 4.60165 68.6465 6.53461C68.6465 10.1182 66.4986 11.4539 64.9469 12.2249C69.8797 13.6312 70.2663 17.8473 70.2663 19.0745C70.2309 22.2725 68.6819 24.3087 66.1447 25.3973C65.0177 25.7828 63.6429 25.9946 61.9878 25.9946H55.4706V0ZM56.5268 11.91H61.2473C62.7963 11.91 64.0295 11.7335 64.9469 11.2421C67.1302 10.0123 67.5903 8.22053 67.5903 6.39344C67.5903 4.03968 66.2863 2.31847 64.9469 1.72121C64.2065 1.30041 63.2564 0.982771 61.0023 0.947478H56.5268V11.91ZM56.5268 25.0498H62.0232C63.3979 25.0498 64.7019 24.8733 65.7582 24.4878C67.7318 23.6435 69.1747 21.9576 69.2101 19.0772C69.2101 16.4763 67.8353 14.4402 65.6874 13.49C64.2772 12.8928 63.3625 12.8575 61.2473 12.8575H56.5268V25.0471V25.0498Z" fill="#00231D"/>
<path d="M77.2218 0H78.2781V25.9973H77.2218V0Z" fill="#00231D"/>
<path d="M86.8098 0H101.113V0.947478H87.8661V12.4367H101.113V13.3842H87.8661V25.0471H101.113V25.9946H86.8098V0Z" fill="#00231D"/>
</g>
<defs>
<clipPath id="clip0_1_754">
<rect width="93" height="35" fill="white"/>
</clipPath>
</defs>
</svg>
