<svg id="Group_437" data-name="Group 437" xmlns="http://www.w3.org/2000/svg" width="121.892" height="46" viewBox="0 0 121.892 46">
  <g id="Group_434" data-name="Group 434" transform="translate(0.506 0.1)">
    <path id="Path_1700" data-name="Path 1700" d="M15.444,26.044,1.86,13.206,15.444.37,29.025,13.208,15.444,26.047ZM3.335,13.206,15.444,24.65,27.553,13.206,15.444,1.761Z" transform="translate(-1.86 -0.37)" fill="#fff"/>
    <path id="Path_1701" data-name="Path 1701" d="M63.171,26.044,49.59,13.206,63.171.37,76.752,13.208,63.171,26.047ZM51.062,13.206,63.171,24.65,75.28,13.206,63.171,1.761Z" transform="translate(-36.744 -0.37)" fill="#fff"/>
  </g>
  <g id="Group_435" data-name="Group 435" transform="translate(54.971)">
    <path id="Path_1702" data-name="Path 1702" d="M204.22,0h5.469a8.6,8.6,0,0,1,4.527.939,5.976,5.976,0,0,1,3.031,5.539,5.775,5.775,0,0,1-3.658,5.641,6.877,6.877,0,0,1,5.259,6.791,6.393,6.393,0,0,1-4.075,6.268,12.692,12.692,0,0,1-4.11.592H204.22Zm1.044,11.808h4.667a7.823,7.823,0,0,0,3.658-.662A4.969,4.969,0,0,0,216.2,6.338a5.01,5.01,0,0,0-2.613-4.632,7.526,7.526,0,0,0-3.9-.767h-4.425Zm0,13.027H210.7a10.993,10.993,0,0,0,3.693-.557,5.47,5.47,0,0,0,3.413-5.364,5.844,5.844,0,0,0-3.483-5.539,9.6,9.6,0,0,0-4.39-.627h-4.667V24.832Z" transform="translate(-204.22)" fill="#fff"/>
    <path id="Path_1703" data-name="Path 1703" d="M284.12,0h1.044V25.774H284.12Z" transform="translate(-262.615)" fill="#fff"/>
    <path id="Path_1704" data-name="Path 1704" d="M319.34,0h14.141V.939h-13.1V12.33h13.1v.939h-13.1V24.832h13.1v.939H319.34Z" transform="translate(-288.356)" fill="#fff"/>
  </g>
  <g id="Group_436" data-name="Group 436" transform="translate(0 35.856)">
    <path id="Path_1705" data-name="Path 1705" d="M4.294,134.455a2.186,2.186,0,0,0-1.313-.374,3.169,3.169,0,0,0-.638.065,1.706,1.706,0,0,0-.557.215,1.153,1.153,0,0,0-.39.406,1.257,1.257,0,0,0-.145.633.809.809,0,0,0,.21.579,1.565,1.565,0,0,0,.563.363,4.476,4.476,0,0,0,.794.231c.3.062.6.127.9.2s.608.156.9.253a2.921,2.921,0,0,1,.794.4,1.877,1.877,0,0,1,.563.627,1.95,1.95,0,0,1,.21.953,1.927,1.927,0,0,1-.277,1.055,2.267,2.267,0,0,1-.708.713,3.107,3.107,0,0,1-.969.4,4.68,4.68,0,0,1-1.066.124,4.537,4.537,0,0,1-1.227-.161,3.032,3.032,0,0,1-1.017-.493,2.332,2.332,0,0,1-.692-.842,2.712,2.712,0,0,1-.256-1.217H.954A1.674,1.674,0,0,0,1.641,140a2.109,2.109,0,0,0,.719.336,3.272,3.272,0,0,0,.842.108,3.839,3.839,0,0,0,.7-.065,2.118,2.118,0,0,0,.632-.221,1.186,1.186,0,0,0,.627-1.12.974.974,0,0,0-.21-.649,1.541,1.541,0,0,0-.563-.406,4.042,4.042,0,0,0-.794-.253l-.9-.2c-.307-.067-.608-.148-.9-.237a3.2,3.2,0,0,1-.794-.358,1.71,1.71,0,0,1-.563-.573,1.691,1.691,0,0,1-.21-.88,1.993,1.993,0,0,1,.869-1.714,2.9,2.9,0,0,1,.9-.412,3.89,3.89,0,0,1,1.034-.135,4.114,4.114,0,0,1,1.1.14,2.531,2.531,0,0,1,.894.444,2.138,2.138,0,0,1,.606.762,2.707,2.707,0,0,1,.242,1.1H4.887a1.606,1.606,0,0,0-.6-1.206Z" transform="translate(0.02 -133.22)" fill="#fff"/>
    <path id="Path_1706" data-name="Path 1706" d="M30.261,146.7a2.535,2.535,0,0,1-1.58.476,2.9,2.9,0,0,1-1.163-.215,2.25,2.25,0,0,1-.826-.606,2.567,2.567,0,0,1-.5-.931A4.394,4.394,0,0,1,26,144.247a3.377,3.377,0,0,1,.194-1.168,2.773,2.773,0,0,1,.546-.918,2.473,2.473,0,0,1,.832-.606,2.568,2.568,0,0,1,1.055-.215,2.3,2.3,0,0,1,1.238.307,2.463,2.463,0,0,1,.789.783,3.122,3.122,0,0,1,.412,1.039,4.381,4.381,0,0,1,.092,1.071H26.972a2.2,2.2,0,0,0,.086.7,1.557,1.557,0,0,0,.315.584,1.576,1.576,0,0,0,.552.406,1.883,1.883,0,0,0,.789.151,1.614,1.614,0,0,0,.958-.269,1.321,1.321,0,0,0,.493-.821h.91a2.235,2.235,0,0,1-.81,1.416Zm-.221-3.59a1.567,1.567,0,0,0-1.467-.961,1.661,1.661,0,0,0-.643.124,1.484,1.484,0,0,0-.493.342,1.637,1.637,0,0,0-.326.5,1.858,1.858,0,0,0-.14.611h3.214a1.844,1.844,0,0,0-.145-.616Z" transform="translate(-18.997 -139.155)" fill="#fff"/>
    <path id="Path_1707" data-name="Path 1707" d="M52.844,147.028a1.3,1.3,0,0,1-.659.14.8.8,0,0,1-.568-.2.875.875,0,0,1-.21-.654,2.183,2.183,0,0,1-.88.654,3.057,3.057,0,0,1-1.806.113,1.693,1.693,0,0,1-.589-.269,1.294,1.294,0,0,1-.4-.482,1.9,1.9,0,0,1,.016-1.5,1.407,1.407,0,0,1,.428-.493,1.9,1.9,0,0,1,.606-.285c.226-.065.46-.118.7-.162q.379-.077.719-.113a4.025,4.025,0,0,0,.6-.108,1.019,1.019,0,0,0,.412-.2.5.5,0,0,0,.151-.4.926.926,0,0,0-.113-.487.77.77,0,0,0-.293-.28,1.211,1.211,0,0,0-.4-.129,3.038,3.038,0,0,0-.439-.032,1.976,1.976,0,0,0-.974.221.944.944,0,0,0-.423.837H47.8a1.989,1.989,0,0,1,.215-.877,1.656,1.656,0,0,1,.519-.579,2.215,2.215,0,0,1,.74-.32,3.931,3.931,0,0,1,.891-.1,5.361,5.361,0,0,1,.751.054,1.977,1.977,0,0,1,.676.221,1.311,1.311,0,0,1,.487.468,1.513,1.513,0,0,1,.183.789v2.872a2.239,2.239,0,0,0,.038.476c.024.1.11.151.253.151a1.093,1.093,0,0,0,.283-.043v.713Zm-1.494-2.866a1.16,1.16,0,0,1-.455.188q-.283.061-.589.1c-.2.024-.412.054-.622.086a2.26,2.26,0,0,0-.563.156,1.038,1.038,0,0,0-.406.307.854.854,0,0,0-.156.544.737.737,0,0,0,.092.382.763.763,0,0,0,.237.253,1,1,0,0,0,.342.14,1.842,1.842,0,0,0,.412.043,2.164,2.164,0,0,0,.778-.124,1.655,1.655,0,0,0,.53-.312,1.22,1.22,0,0,0,.3-.409,1.038,1.038,0,0,0,.1-.414v-.937Z" transform="translate(-34.776 -139.147)" fill="#fff"/>
    <path id="Path_1708" data-name="Path 1708" d="M71.009,141.449v1.179h.022a2.51,2.51,0,0,1,.821-1.007,2.081,2.081,0,0,1,1.233-.3v.974a2.639,2.639,0,0,0-.942.151,1.449,1.449,0,0,0-.627.444,1.836,1.836,0,0,0-.347.708,3.8,3.8,0,0,0-.108.958v2.487h-.92v-5.59h.867Z" transform="translate(-51.257 -139.137)" fill="#fff"/>
    <path id="Path_1709" data-name="Path 1709" d="M85.462,142.434a1.4,1.4,0,0,0-.931-.293,1.728,1.728,0,0,0-.832.183,1.509,1.509,0,0,0-.536.487,1.993,1.993,0,0,0-.285.7,3.718,3.718,0,0,0-.086.818,3.079,3.079,0,0,0,.091.756,2.055,2.055,0,0,0,.285.654,1.446,1.446,0,0,0,.509.46,1.518,1.518,0,0,0,.746.172,1.5,1.5,0,0,0,1.066-.358A1.626,1.626,0,0,0,85.959,145H86.9a2.583,2.583,0,0,1-.772,1.6,2.435,2.435,0,0,1-1.693.563,2.911,2.911,0,0,1-1.13-.2,2.167,2.167,0,0,1-.821-.584,2.532,2.532,0,0,1-.5-.9,3.735,3.735,0,0,1-.167-1.152,4.122,4.122,0,0,1,.161-1.173,2.718,2.718,0,0,1,.493-.953,2.313,2.313,0,0,1,.826-.638,2.684,2.684,0,0,1,1.157-.231,3.38,3.38,0,0,1,.891.113,2.165,2.165,0,0,1,.735.353,1.918,1.918,0,0,1,.525.6,2.188,2.188,0,0,1,.258.859h-.953a1.4,1.4,0,0,0-.455-.821Z" transform="translate(-59.793 -139.147)" fill="#fff"/>
    <path id="Path_1710" data-name="Path 1710" d="M105.438,133.883v2.953h.022a1.212,1.212,0,0,1,.3-.439,1.81,1.81,0,0,1,.439-.293,2.208,2.208,0,0,1,.509-.167,2.649,2.649,0,0,1,.514-.054,2.466,2.466,0,0,1,.92.151,1.477,1.477,0,0,1,.595.423,1.554,1.554,0,0,1,.318.643,3.562,3.562,0,0,1,.092.826V141.6h-.92v-3.784a1.046,1.046,0,0,0-1.133-1.125,1.879,1.879,0,0,0-.729.129,1.375,1.375,0,0,0-.514.369,1.609,1.609,0,0,0-.31.557,2.3,2.3,0,0,0-.1.7V141.6h-.92V133.88h.92Z" transform="translate(-76.383 -133.702)" fill="#fff"/>
    <path id="Path_1711" data-name="Path 1711" d="M128.82,158.12v1.2h-1.2v-1.2Z" transform="translate(-93.266 -151.418)" fill="#fff"/>
    <path id="Path_1712" data-name="Path 1712" d="M150.948,133.89v7.722H149.92V133.89Z" transform="translate(-109.564 -133.71)" fill="#fff"/>
    <path id="Path_1713" data-name="Path 1713" d="M160.467,141.452v.885h.022a1.935,1.935,0,0,1,1.817-1.017,2.467,2.467,0,0,1,.92.151,1.477,1.477,0,0,1,.595.423,1.554,1.554,0,0,1,.318.643,3.564,3.564,0,0,1,.091.826v3.677h-.92v-3.784a1.046,1.046,0,0,0-1.133-1.125,1.879,1.879,0,0,0-.729.129,1.375,1.375,0,0,0-.514.369,1.609,1.609,0,0,0-.31.557,2.3,2.3,0,0,0-.1.7v3.157h-.92v-5.59h.864Z" transform="translate(-116.639 -139.14)" fill="#fff"/>
    <path id="Path_1714" data-name="Path 1714" d="M182.725,137.257v.81h-1.114v3.472a1,1,0,0,0,.027.261.255.255,0,0,0,.1.151.47.47,0,0,0,.21.07,3.077,3.077,0,0,0,.353.016h.423v.81h-.7a3.324,3.324,0,0,1-.611-.048.9.9,0,0,1-.412-.178.745.745,0,0,1-.231-.369,2.2,2.2,0,0,1-.075-.627v-3.558h-.953v-.81h.953V135.58h.921v1.677h1.114Z" transform="translate(-131.358 -134.945)" fill="#fff"/>
    <path id="Path_1715" data-name="Path 1715" d="M197.741,146.7a2.535,2.535,0,0,1-1.58.476,2.9,2.9,0,0,1-1.163-.215,2.25,2.25,0,0,1-.826-.606,2.566,2.566,0,0,1-.5-.931,4.394,4.394,0,0,1-.188-1.179,3.377,3.377,0,0,1,.194-1.168,2.773,2.773,0,0,1,.546-.918,2.473,2.473,0,0,1,.832-.606,2.568,2.568,0,0,1,1.055-.215,2.3,2.3,0,0,1,1.238.307,2.463,2.463,0,0,1,.789.783,3.122,3.122,0,0,1,.412,1.039,4.38,4.38,0,0,1,.092,1.071h-4.185a2.2,2.2,0,0,0,.086.7,1.557,1.557,0,0,0,.315.584,1.576,1.576,0,0,0,.552.406,1.883,1.883,0,0,0,.789.151,1.614,1.614,0,0,0,.958-.269,1.321,1.321,0,0,0,.493-.821h.91a2.235,2.235,0,0,1-.81,1.416Zm-.221-3.59a1.567,1.567,0,0,0-1.467-.961,1.661,1.661,0,0,0-.643.124,1.484,1.484,0,0,0-.493.342,1.638,1.638,0,0,0-.326.5,1.858,1.858,0,0,0-.14.611h3.214a1.843,1.843,0,0,0-.145-.616Z" transform="translate(-141.4 -139.155)" fill="#fff"/>
    <path id="Path_1716" data-name="Path 1716" d="M216.919,141.449v1.179h.022a2.51,2.51,0,0,1,.821-1.007,2.081,2.081,0,0,1,1.233-.3v.974a2.639,2.639,0,0,0-.942.151,1.449,1.449,0,0,0-.627.444,1.836,1.836,0,0,0-.347.708,3.8,3.8,0,0,0-.108.958v2.487h-.92v-5.59h.867Z" transform="translate(-157.895 -139.137)" fill="#fff"/>
    <path id="Path_1717" data-name="Path 1717" d="M229.76,135.015V133.89h.92v1.125Zm.92,1.007v5.59h-.92v-5.59Z" transform="translate(-167.915 -133.71)" fill="#fff"/>
    <path id="Path_1718" data-name="Path 1718" d="M239.339,141.452v.821h.022a2.031,2.031,0,0,1,1.806-.953,2.056,2.056,0,0,1,.942.215,1.214,1.214,0,0,1,.595.735,1.93,1.93,0,0,1,.74-.7,2.079,2.079,0,0,1,1.012-.248,2.884,2.884,0,0,1,.762.091,1.6,1.6,0,0,1,.584.285,1.306,1.306,0,0,1,.38.5,1.865,1.865,0,0,1,.135.74v4.1h-.92v-3.666a2.546,2.546,0,0,0-.043-.487,1.039,1.039,0,0,0-.162-.4.8.8,0,0,0-.331-.266,1.316,1.316,0,0,0-.546-.1,1.444,1.444,0,0,0-1.071.39,1.411,1.411,0,0,0-.39,1.039v3.483h-.921v-3.666a2.385,2.385,0,0,0-.048-.5,1.091,1.091,0,0,0-.167-.4.763.763,0,0,0-.32-.258,1.229,1.229,0,0,0-.514-.092,1.377,1.377,0,0,0-.686.161,1.518,1.518,0,0,0-.466.39,1.566,1.566,0,0,0-.258.471,1.328,1.328,0,0,0-.081.406v3.483h-.92v-5.59h.864Z" transform="translate(-174.281 -139.14)" fill="#fff"/>
    <path id="Path_1719" data-name="Path 1719" d="M274.73,158.12v1.2h-1.2v-1.2Z" transform="translate(-199.904 -151.418)" fill="#fff"/>
    <path id="Path_1720" data-name="Path 1720" d="M296.432,133.89l3.017,7.722h-1.136l-.842-2.325H294.2l-.864,2.325h-1.05l3.006-7.722Zm.713,4.532-1.286-3.6h-.021l-1.308,3.6Z" transform="translate(-213.615 -133.71)" fill="#fff"/>
    <path id="Path_1721" data-name="Path 1721" d="M324.4,141.6v-.756h-.022a1.357,1.357,0,0,1-.713.67,2.724,2.724,0,0,1-1.071.2,2.553,2.553,0,0,1-1.13-.237,2.3,2.3,0,0,1-.8-.638,2.758,2.758,0,0,1-.482-.931,3.841,3.841,0,0,1-.161-1.125,3.946,3.946,0,0,1,.156-1.125,2.675,2.675,0,0,1,.476-.926,2.3,2.3,0,0,1,.8-.627,2.53,2.53,0,0,1,1.12-.231,2.651,2.651,0,0,1,.466.043,2.486,2.486,0,0,1,.5.145,2.217,2.217,0,0,1,.471.269,1.509,1.509,0,0,1,.374.417h.022V133.88h.921V141.6H324.4Zm-3.3-1.984a2,2,0,0,0,.315.665,1.54,1.54,0,0,0,.541.466,1.635,1.635,0,0,0,.772.172,1.589,1.589,0,0,0,.789-.183,1.572,1.572,0,0,0,.53-.482,1.965,1.965,0,0,0,.3-.676,3.281,3.281,0,0,0-.005-1.561,1.963,1.963,0,0,0-.307-.676,1.576,1.576,0,0,0-.546-.471,1.714,1.714,0,0,0-.81-.178,1.575,1.575,0,0,0-.789.183,1.481,1.481,0,0,0-.519.487,2.111,2.111,0,0,0-.28.692,3.582,3.582,0,0,0-.086.8,2.829,2.829,0,0,0,.1.762Z" transform="translate(-233.882 -133.702)" fill="#fff"/>
    <path id="Path_1722" data-name="Path 1722" d="M345.038,147.4l-2.078-5.59h1.028l1.569,4.662h.022l1.526-4.662h.964l-2.046,5.59Z" transform="translate(-250.647 -139.498)" fill="#fff"/>
    <path id="Path_1723" data-name="Path 1723" d="M365.26,135.015V133.89h.92v1.125Zm.92,1.007v5.59h-.92v-5.59Z" transform="translate(-266.946 -133.71)" fill="#fff"/>
    <path id="Path_1724" data-name="Path 1724" d="M373.732,145.808a.975.975,0,0,0,.342.336,1.481,1.481,0,0,0,.476.178,2.612,2.612,0,0,0,.546.054,3.379,3.379,0,0,0,.455-.032,1.723,1.723,0,0,0,.439-.118.859.859,0,0,0,.331-.253.681.681,0,0,0,.129-.428.62.62,0,0,0-.269-.541,2.343,2.343,0,0,0-.676-.3c-.269-.075-.565-.145-.883-.2a4.485,4.485,0,0,1-.88-.261,1.818,1.818,0,0,1-.676-.471,1.218,1.218,0,0,1-.269-.842,1.338,1.338,0,0,1,.188-.724,1.549,1.549,0,0,1,.487-.493,2.192,2.192,0,0,1,.67-.28,3.046,3.046,0,0,1,.74-.092,4.461,4.461,0,0,1,.877.081,1.994,1.994,0,0,1,.708.283,1.472,1.472,0,0,1,.493.541,2.063,2.063,0,0,1,.215.848h-.92a.934.934,0,0,0-.14-.449.906.906,0,0,0-.3-.285,1.372,1.372,0,0,0-.406-.156,2.091,2.091,0,0,0-.449-.048,2.747,2.747,0,0,0-.417.032,1.424,1.424,0,0,0-.385.113.757.757,0,0,0-.28.215.538.538,0,0,0-.108.35.524.524,0,0,0,.167.4,1.278,1.278,0,0,0,.428.258,3.762,3.762,0,0,0,.584.172c.215.046.433.1.649.145.231.051.455.113.676.183a2.227,2.227,0,0,1,.584.285,1.4,1.4,0,0,1,.412.449,1.314,1.314,0,0,1,.156.67,1.558,1.558,0,0,1-.21.842,1.658,1.658,0,0,1-.552.541,2.3,2.3,0,0,1-.767.285,4.566,4.566,0,0,1-.848.081,3.932,3.932,0,0,1-.885-.1,2.165,2.165,0,0,1-.746-.32,1.627,1.627,0,0,1-.519-.584,2.02,2.02,0,0,1-.215-.88h.92a1.047,1.047,0,0,0,.14.514Z" transform="translate(-272.368 -139.155)" fill="#fff"/>
    <path id="Path_1725" data-name="Path 1725" d="M393.122,143.1a2.606,2.606,0,0,1,.519-.931,2.454,2.454,0,0,1,.853-.622,3.11,3.11,0,0,1,2.342,0,2.433,2.433,0,0,1,.848.622,2.605,2.605,0,0,1,.519.931,3.715,3.715,0,0,1,.172,1.152,3.656,3.656,0,0,1-.172,1.147,2.592,2.592,0,0,1-.519.923,2.41,2.41,0,0,1-.848.616,3.216,3.216,0,0,1-2.342,0,2.36,2.36,0,0,1-.853-.616,2.616,2.616,0,0,1-.519-.923,3.657,3.657,0,0,1-.172-1.147A3.715,3.715,0,0,1,393.122,143.1Zm.937,2.054a1.888,1.888,0,0,0,.374.659,1.618,1.618,0,0,0,.557.406,1.7,1.7,0,0,0,1.351,0,1.618,1.618,0,0,0,.557-.406,1.913,1.913,0,0,0,.374-.659,3.1,3.1,0,0,0,0-1.806,1.964,1.964,0,0,0-.374-.665,1.6,1.6,0,0,0-.557-.412,1.7,1.7,0,0,0-1.351,0,1.6,1.6,0,0,0-.557.412,1.964,1.964,0,0,0-.374.665,2.754,2.754,0,0,0-.135.9A2.8,2.8,0,0,0,394.059,145.155Z" transform="translate(-287.183 -139.14)" fill="#fff"/>
    <path id="Path_1726" data-name="Path 1726" d="M417.869,141.449v1.179h.022a2.51,2.51,0,0,1,.821-1.007,2.081,2.081,0,0,1,1.233-.3v.974a2.639,2.639,0,0,0-.942.151,1.45,1.45,0,0,0-.627.444,1.837,1.837,0,0,0-.347.708,3.805,3.805,0,0,0-.108.958v2.487H417v-5.59h.867Z" transform="translate(-304.76 -139.137)" fill="#fff"/>
    <path id="Path_1727" data-name="Path 1727" d="M431.057,148.156a5.508,5.508,0,0,1-.32.692,1.923,1.923,0,0,1-.347.46,1.179,1.179,0,0,1-.422.261,1.635,1.635,0,0,1-.536.081,2.689,2.689,0,0,1-.326-.022,1.579,1.579,0,0,1-.315-.075v-.842a1.522,1.522,0,0,0,.277.091,1.234,1.234,0,0,0,.264.038.8.8,0,0,0,.471-.135.825.825,0,0,0,.285-.385l.379-.942-2.218-5.558h1.039l1.634,4.576h.022l1.569-4.576h.974l-2.433,6.338Z" transform="translate(-312.982 -139.505)" fill="#fff"/>
    <path id="Path_1728" data-name="Path 1728" d="M449.6,158.12v1.2h-1.2v-1.2Z" transform="translate(-327.709 -151.418)" fill="#fff"/>
  </g>
</svg>
