<svg xmlns="http://www.w3.org/2000/svg" width="48.857" height="49" viewBox="0 0 48.857 49">
  <g id="FINDEX_LOGO-04" transform="translate(0.04 -0.022)">
    <path id="Path_6" data-name="Path 6" d="M24.286.022,49.9.237l.113,25.94a13,13,0,0,1-13,13.051h0v-26.1h-26.1A13.267,13.267,0,0,1,24.286.022Z" transform="translate(-1.194 0)" fill="#3ad679"/>
    <path id="Path_7" data-name="Path 7" d="M22.369,52.855l7.789.033a2.586,2.586,0,0,0,2.6-2.586V38.044a2.585,2.585,0,0,0-2.585-2.585H22.378a2.585,2.585,0,0,0-2.585,2.585V50.27a2.585,2.585,0,0,0,2.576,2.585Z" transform="translate(-2.164 -3.866)" fill="#29a35a"/>
    <path id="Path_8" data-name="Path 8" d="M10.773,20.793H2.544A2.586,2.586,0,0,0-.04,23.4L.194,51.172l10.569.044a2.586,2.586,0,0,0,2.6-2.585V23.378A2.586,2.586,0,0,0,10.773,20.793Z" transform="translate(0 -2.266)" fill="#29a35a"/>
  </g>
</svg>
