<svg xmlns="http://www.w3.org/2000/svg" width="139.395" height="27.697" viewBox="0 0 139.395 27.697">
  <g id="FINDEX_LOGO-02" transform="translate(0.431 -0.234)">
    <path id="Path_1819" data-name="Path 1819" d="M932.08,124.05h10.207v3.076H935.3v3.67h6.057v3.076H935.3v6.348H932.08Z" transform="translate(-889.188 -118.064)" fill="#fff"/>
    <path id="Path_1820" data-name="Path 1820" d="M1266.38,124.05h3.217v16.17h-3.217Z" transform="translate(-1207.957 -118.064)" fill="#fff"/>
    <path id="Path_1821" data-name="Path 1821" d="M1485.6,110.977l.064,9.743-11.4-10.38h-.133v16.807h3.261l-.064-9.558,11.425,10.218h.089V110.977Z" transform="translate(-1406.055 -104.991)" fill="#fff"/>
    <path id="Path_1822" data-name="Path 1822" d="M1929.26,140.268V124.1h4.881a10.847,10.847,0,0,1,4.194.725,7.422,7.422,0,0,1,2.784,1.933,7.741,7.741,0,0,1,1.542,2.7,9.642,9.642,0,0,1,.488,3.01,7.738,7.738,0,0,1-.655,3.24,7.39,7.39,0,0,1-1.786,2.462,7.858,7.858,0,0,1-2.618,1.56,9.185,9.185,0,0,1-3.15.538Zm3.217-3.076h1.908a7.277,7.277,0,0,0,2.219-.319,4.919,4.919,0,0,0,1.719-.934,4.035,4.035,0,0,0,1.109-1.549,6.39,6.39,0,0,0-.134-4.723,4.292,4.292,0,0,0-1.287-1.549,4.753,4.753,0,0,0-1.564-.758,5.513,5.513,0,0,0-1.353-.209h-2.618Z" transform="translate(-1840.04 -118.111)" fill="#fff"/>
    <path id="Path_1823" data-name="Path 1823" d="M2345.24,124.05h11.139v3.076h-7.921v3.449h7.011v3.076h-7.012v3.493h8.231v3.076H2345.24Z" transform="translate(-2236.695 -118.064)" fill="#fff"/>
    <path id="Path_1824" data-name="Path 1824" d="M2692.607,140.229l-5.355-8.131,5.2-8.039h-3.905l-3.053,5.37-3.537-5.37h-4.1l5.135,7.829-5.357,8.341h3.994l3.176-5.577,3.658,5.577Z" transform="translate(-2553.642 -118.073)" fill="#fff"/>
    <path id="Path_1825" data-name="Path 1825" d="M125.8.234l14.478.122.064,14.662a7.346,7.346,0,0,1-7.349,7.377h0V7.641H118.24A7.5,7.5,0,0,1,125.8.234Z" transform="translate(-113.158 0)" fill="#3ad679"/>
    <path id="Path_1826" data-name="Path 1826" d="M216.006,394.183l4.4.019a1.462,1.462,0,0,0,1.468-1.462v-6.929a1.461,1.461,0,0,0-1.461-1.461h-4.4a1.461,1.461,0,0,0-1.461,1.461v6.911a1.461,1.461,0,0,0,1.456,1.461Z" transform="translate(-204.993 -366.27)" fill="#29a35a"/>
    <path id="Path_1827" data-name="Path 1827" d="M5.681,225.38H1.029a1.462,1.462,0,0,0-1.46,1.473l.132,15.7,5.974.025a1.462,1.462,0,0,0,1.468-1.461V226.841A1.462,1.462,0,0,0,5.681,225.38Z" transform="translate(0 -214.686)" fill="#29a35a"/>
  </g>
</svg>
