<svg xmlns="http://www.w3.org/2000/svg" width="80.526" height="16" viewBox="0 0 80.526 16">
  <g id="FINDEX_LOGO-01" transform="translate(0.431 -0.234)">
    <path id="Path_1603" data-name="Path 1603" d="M932.08,124.05h5.9v1.777h-4.038v2.12h3.5v1.777h-3.5v3.667H932.08Z" transform="translate(-907.484 -120.493)" fill="#222a35"/>
    <path id="Path_1604" data-name="Path 1604" d="M1266.38,124.05h1.859v9.341h-1.859Z" transform="translate(-1232.812 -120.493)" fill="#222a35"/>
    <path id="Path_1605" data-name="Path 1605" d="M1480.757,110.708l.037,5.628-6.587-6h-.077v9.709h1.884l-.037-5.522,6.6,5.9h.051v-9.722Z" transform="translate(-1434.987 -107.151)" fill="#222a35"/>
    <path id="Path_1606" data-name="Path 1606" d="M1929.26,133.44V124.1h2.82a6.265,6.265,0,0,1,2.423.419,4.284,4.284,0,0,1,1.608,1.117A4.468,4.468,0,0,1,1937,127.2a5.567,5.567,0,0,1,.282,1.739,4.473,4.473,0,0,1-.378,1.872,4.272,4.272,0,0,1-1.032,1.422,4.542,4.542,0,0,1-1.513.9,5.306,5.306,0,0,1-1.82.311Zm1.859-1.777h1.1a4.2,4.2,0,0,0,1.282-.184,2.84,2.84,0,0,0,.993-.539,2.332,2.332,0,0,0,.641-.895,3.691,3.691,0,0,0-.077-2.729,2.477,2.477,0,0,0-.743-.895,2.746,2.746,0,0,0-.9-.438,3.185,3.185,0,0,0-.782-.12h-1.513Z" transform="translate(-1877.902 -120.542)" fill="#222a35"/>
    <path id="Path_1607" data-name="Path 1607" d="M2345.24,124.05h6.435v1.777H2347.1v1.992h4.05V129.6H2347.1v2.018h4.755v1.777h-6.614Z" transform="translate(-2282.718 -120.493)" fill="#222a35"/>
    <path id="Path_1608" data-name="Path 1608" d="M2686.282,133.4l-3.094-4.7,3-4.644h-2.256l-1.763,3.1-2.043-3.1h-2.371l2.966,4.522-3.094,4.818h2.307l1.835-3.222,2.113,3.222Z" transform="translate(-2606.187 -120.503)" fill="#222a35"/>
    <path id="Path_1609" data-name="Path 1609" d="M122.608.234l8.364.07.037,8.47a4.244,4.244,0,0,1-4.245,4.262h0V4.513H118.24A4.332,4.332,0,0,1,122.608.234Z" transform="translate(-115.486)" fill="#3ad679"/>
    <path id="Path_1610" data-name="Path 1610" d="M215.391,390.03l2.543.011a.844.844,0,0,0,.848-.844v-4a.844.844,0,0,0-.844-.844h-2.544a.844.844,0,0,0-.844.844v3.992A.844.844,0,0,0,215.391,390.03Z" transform="translate(-209.211 -373.807)" fill="#29a35a"/>
    <path id="Path_1611" data-name="Path 1611" d="M3.1,225.38H.413a.844.844,0,0,0-.844.851l.076,9.069,3.451.014a.844.844,0,0,0,.848-.844v-8.246A.844.844,0,0,0,3.1,225.38Z" transform="translate(0 -219.103)" fill="#29a35a"/>
  </g>
</svg>
