<svg width="158" height="32" viewBox="0 0 158 32" fill="none" xmlns="http://www.w3.org/2000/svg">
<path d="M49.1055 6.64453H60.6744V10.1984H52.7521V14.4394H59.6173V17.9933H52.7521V25.3273H49.1055V6.64453Z" fill="white"/>
<path d="M66.709 6.64453H70.3555V25.326H66.709V6.64453Z" fill="white"/>
<path d="M90.6513 6.64664L90.7241 17.9027L77.7998 5.91016H77.6494V25.3281H81.3457L81.273 14.2846L94.2228 26.0893H94.3234V6.64664H90.6513Z" fill="white"/>
<path d="M101.616 25.3279V6.64884H107.149C108.772 6.60543 110.388 6.89018 111.903 7.48666C113.108 7.97338 114.187 8.73759 115.054 9.71959C115.839 10.6291 116.433 11.6914 116.803 12.8422C117.167 13.9641 117.353 15.1379 117.356 16.3195C117.376 17.6075 117.123 18.8847 116.614 20.0637C116.139 21.1439 115.45 22.1117 114.589 22.9059C113.725 23.6985 112.716 24.3109 111.621 24.7088C110.475 25.1259 109.267 25.335 108.05 25.3266L101.616 25.3279ZM105.263 21.774H107.426C108.277 21.7836 109.126 21.6585 109.94 21.4032C110.653 21.1802 111.316 20.8134 111.888 20.3245C112.441 19.8388 112.872 19.2253 113.145 18.5352C113.781 16.7633 113.726 14.8107 112.994 13.0782C112.655 12.3728 112.156 11.7595 111.539 11.2889C111.006 10.8888 110.405 10.5922 109.767 10.4141C109.267 10.267 108.752 10.184 108.233 10.1669H105.265L105.263 21.774Z" fill="white"/>
<path d="M123.521 6.64453H136.148V10.1984H127.169V14.1836H135.116V17.7375H127.168V21.7733H136.503V25.3273H123.531L123.521 6.64453Z" fill="white"/>
<path d="M158 25.3275L151.93 15.9361L157.825 6.64844H153.398L149.938 12.8517L145.93 6.64844H141.277L147.096 15.6939L141.024 25.3324H145.551L149.151 18.8894L153.297 25.3324L158 25.3275Z" fill="white"/>
<path d="M14.82 0.000312545L31.2296 0.141184L31.3024 17.0816C31.3075 18.1997 31.0958 19.3079 30.6794 20.3423C30.2631 21.3768 29.6502 22.3173 28.8762 23.1096C28.1022 23.9019 27.1821 24.5305 26.169 24.9593C25.1559 25.388 24.0697 25.6085 22.9727 25.608V8.55885H6.24902C6.27621 6.2667 7.1935 4.07896 8.79998 2.4748C10.4065 0.870648 12.5712 -0.0191456 14.82 0.000312545Z" fill="#3AD679"/>
<path d="M12.9702 31.9783L17.9613 31.9993C18.1794 32.0001 18.3956 31.957 18.5973 31.8725C18.7991 31.788 18.9825 31.6637 19.137 31.5067C19.2916 31.3498 19.4142 31.1633 19.4978 30.958C19.5815 30.7526 19.6245 30.5325 19.6245 30.3101V22.3052C19.6245 22.0835 19.5817 21.864 19.4985 21.6592C19.4153 21.4544 19.2933 21.2683 19.1395 21.1116C18.9857 20.9548 18.8032 20.8305 18.6023 20.7457C18.4014 20.6608 18.186 20.6172 17.9685 20.6172H12.9763C12.5371 20.6172 12.1159 20.795 11.8053 21.1116C11.4948 21.4281 11.3203 21.8575 11.3203 22.3052V30.2891C11.3203 30.7357 11.4939 31.1641 11.8032 31.4805C12.1124 31.7969 12.5321 31.9754 12.9702 31.9771V31.9783Z" fill="#29A35A"/>
<path d="M6.92833 12.0859H1.65483C1.43638 12.0863 1.22015 12.1306 1.01858 12.2164C0.817001 12.3022 0.634058 12.4278 0.480269 12.5859C0.32648 12.7441 0.204881 12.9316 0.122466 13.1378C0.0400511 13.3441 -0.00155388 13.5649 4.43584e-05 13.7875L0.149157 31.9253L6.92105 31.9537C7.13909 31.9545 7.35514 31.9115 7.55682 31.827C7.75851 31.7426 7.94186 31.6184 8.09637 31.4616C8.25088 31.3048 8.37352 31.1184 8.45725 30.9132C8.54099 30.708 8.58417 30.488 8.58433 30.2657V13.7739C8.58401 13.3263 8.40943 12.8972 8.09894 12.5807C7.78845 12.2642 7.36743 12.0863 6.92833 12.0859Z" fill="#29A35A"/>
</svg>
